<?xml version="1.0" encoding="utf-8"?>
<!-- Generator: Adobe Illustrator 19.0.0, SVG Export Plug-In . SVG Version: 6.00 Build 0)  -->
<svg version="1.1" id="Layer_1" xmlns="http://www.w3.org/2000/svg" xmlns:xlink="http://www.w3.org/1999/xlink" x="0px" y="0px"
	 viewBox="0 0 138.2 138.2" style="enable-background:new 0 0 138.2 138.2;" xml:space="preserve">
<style type="text/css">
	.st0{opacity:0.2;fill:#9E9E9E;}
</style>
<path id="XMLID_87_" class="st0" d="M4.4,113c1.4,2,2.3,4,2.8,6.2c-3.1,2.1-5.5,5.3-7.2,9.6v2.3l0.4-0.9c0-0.1,0-0.1,0.1-0.2
	c1.6-4.3,3.9-7.6,6.9-9.8c0.6,3.7-0.1,7.6-2.1,11.8c0,0,0,0.1-0.1,0.1l-0.4,1l1-0.4c0,0,0.1,0,0.1-0.1c4.2-1.9,8.2-2.6,11.8-2.1
	c-2.2,3-5.5,5.3-9.8,6.9c-0.1,0-0.1,0-0.2,0.1l-0.9,0.4l0,0h2.3c0,0,0,0,0,0c4.2-1.7,7.4-4.1,9.6-7.2c2.2,0.5,4.3,1.4,6.2,2.8
	c1.7,1.2,3.2,2.7,4.6,4.4l0,0h1.1l0,0c3.1-4,5.4-9.2,7-14.8c6.8,4,13.3,9.3,18.3,14.8l0,0h1.2l0,0L69.1,126l6,6l6,6l0,0h1.2l0,0
	c5-5.5,11.5-10.9,18.3-14.8c1.6,5.7,3.9,10.8,7,14.8l0,0h1.1l0,0c1.4-1.7,2.9-3.2,4.6-4.4c2-1.4,4-2.3,6.2-2.8
	c2.1,3.1,5.3,5.5,9.6,7.2c0,0,0,0,0,0h2.3l0,0l-0.9-0.4c-0.1,0-0.1,0-0.2-0.1c-4.3-1.6-7.6-3.9-9.8-6.9c3.7-0.6,7.6,0.1,11.8,2.1
	c0,0,0.1,0,0.1,0.1l1,0.4l-0.4-1c0,0,0-0.1-0.1-0.1c-1.9-4.2-2.6-8.2-2.1-11.8c3,2.2,5.3,5.5,6.9,9.8c0,0.1,0,0.1,0.1,0.2l0.4,0.9
	l0,0v-2.3c0,0,0,0,0,0c-1.7-4.2-4.1-7.4-7.2-9.6c0.5-2.2,1.4-4.3,2.8-6.2c1.2-1.7,2.7-3.2,4.4-4.6l0,0v-1.1l0,0
	c-4-3.1-9.2-5.4-14.8-7c4-6.8,9.3-13.3,14.8-18.3l0,0v-1.2l0,0l-6-6l-6-6l11.9-11.9l0,0v-1.2l0,0c-5.5-5-10.9-11.5-14.8-18.3
	c5.7-1.6,10.8-3.9,14.8-7l0,0v-1.1l0,0c-1.7-1.4-3.2-2.9-4.4-4.6c-1.4-2-2.3-4-2.8-6.2c3.1-2.1,5.5-5.3,7.2-9.6c0,0,0,0,0,0V6.5l0,0
	l-0.4,0.9c0,0.1,0,0.1-0.1,0.2c-1.6,4.3-3.9,7.6-6.9,9.8c-0.6-3.7,0.1-7.6,2.1-11.8c0,0,0-0.1,0.1-0.1l0.4-1l-1,0.4
	c0,0-0.1,0-0.1,0.1c-4.2,1.9-8.2,2.6-11.8,2.1c2.2-3,5.5-5.3,9.8-6.9c0.1,0,0.1,0,0.2-0.1l0.2-0.1h-2.3c-3.9,1.7-6.9,4-8.9,6.9
	c-2.2-0.5-4.3-1.4-6.2-2.8c-1.6-1.1-3-2.5-4.4-4.1h-1.6c-3,4-5.2,9-6.8,14.5c-6.7-3.9-13-9.1-18-14.5h-1.8l-5.6,5.6l-6,6l-6-6
	L57.5,0h-1.8c-5,5.4-11.3,10.6-18,14.5C36.1,9,33.8,4,30.9,0h-1.6c-1.3,1.6-2.8,3-4.4,4.1c-2,1.4-4,2.3-6.2,2.8
	c-2-2.9-5-5.2-8.9-6.9H7.6l0.2,0.1c0.1,0,0.1,0,0.2,0.1c4.3,1.6,7.6,3.9,9.8,6.9C14.1,7.6,10.2,6.9,5.9,5c0,0-0.1,0-0.1-0.1l-1-0.4
	l0.4,1c0,0,0,0.1,0.1,0.1c1.9,4.2,2.6,8.2,2.1,11.8c-3-2.2-5.3-5.5-6.9-9.8c0-0.1,0-0.1-0.1-0.2L0,6.5v2.3c1.7,4.2,4.1,7.4,7.2,9.6
	c-0.5,2.2-1.4,4.3-2.8,6.2c-1.1,1.6-2.4,3-4,4.3c0,0.6,0,1.2,0,1.8c3.9,2.9,8.9,5.1,14.4,6.7c-4,6.8-9.3,13.3-14.8,18.3v1.2l6,6l6,6
	l-6,6l-6,6v1.2c5.5,5,10.9,11.5,14.8,18.3c-5.7,1.6-10.8,3.9-14.8,7v1.1C1.7,109.7,3.2,111.3,4.4,113z M18.3,129.7
	c-3.7-0.7-7.6-0.1-11.9,1.7c1.8-4.2,2.3-8.2,1.7-11.9c1.8-1.1,3.7-1.9,5.9-2.4c2.2-0.4,4.5-0.5,6.8-0.2c0.3,2.4,0.2,4.7-0.2,6.8
	C20.2,126,19.4,128,18.3,129.7z M30.1,137.2c-1.4-1.7-3-3.2-4.7-4.4c-2-1.4-4-2.3-6.2-2.8c1.1-1.8,1.9-3.7,2.3-5.9
	c0.4-2.2,0.5-4.5,0.2-6.9c4.9,0.7,10.1,2.7,15.1,5.5C35.3,128.2,33.1,133.2,30.1,137.2z M37.1,121.8c-5.1-2.8-10.4-4.9-15.5-5.6
	c-0.7-5-2.7-10.3-5.6-15.5c4.1-1.1,8.4-1.8,12.7-2.2c-0.3,3.3-0.3,6.6-0.2,9.8c0,0.3,0,0.6,0,0.9c0.3,0,0.6,0,0.9,0
	c3.2,0.1,6.5,0.1,9.8-0.2C38.9,113.4,38.2,117.7,37.1,121.8z M39.5,40.1c0.3,0,0.6,0,0.9,0c0-0.3,0-0.6,0-0.9
	c0.1-3.2,0.1-6.5-0.2-9.8c4.3,0.4,8.7,1.1,12.7,2.2c-2.9,5.1-4.9,10.4-5.6,15.5c-5,0.7-10.3,2.7-15.5,5.6c-1.1-4.1-1.8-8.4-2.2-12.7
	C33.1,40.2,36.3,40.3,39.5,40.1z M29.7,39.1c-0.3-3.3-0.3-6.7-0.2-9.9c3.2-0.1,6.6-0.1,9.9,0.2c0.3,3.3,0.3,6.7,0.2,9.9
	C36.4,39.4,33,39.4,29.7,39.1z M97.7,39.2c0,0.3,0,0.6,0,0.9c0.3,0,0.6,0,0.9,0c3.2,0.1,6.5,0.1,9.8-0.2c-0.4,4.3-1.1,8.7-2.2,12.7
	c-5.1-2.9-10.4-4.9-15.5-5.6c-0.7-5-2.7-10.3-5.6-15.5c4.1-1.1,8.4-1.8,12.7-2.2C97.7,32.8,97.6,36,97.7,39.2z M98.8,29.4
	c3.3-0.3,6.7-0.3,9.9-0.2c0.1,3.2,0.1,6.6-0.2,9.9c-3.3,0.3-6.7,0.3-9.9,0.2C98.5,36,98.5,32.7,98.8,29.4z M98.6,97.4
	c-0.3,0-0.6,0-0.9,0c0,0.3,0,0.6,0,0.9c-0.1,3.2-0.1,6.5,0.2,9.8c-4.3-0.4-8.7-1.1-12.7-2.2c2.8-5.1,4.9-10.4,5.6-15.5
	c5-0.7,10.3-2.7,15.5-5.6c1.1,4.1,1.8,8.4,2.2,12.7C105.1,97.4,101.8,97.3,98.6,97.4z M108.5,98.5c0.3,3.3,0.3,6.7,0.2,9.9
	c-3.2,0.1-6.6,0.1-9.9-0.2c-0.3-3.3-0.3-6.7-0.2-9.9C101.8,98.2,105.2,98.2,108.5,98.5z M47.3,89.6c-4.9-0.7-10.1-2.7-15.1-5.5
	c1.6-5.6,3.8-10.6,6.8-14.5c1.4,1.7,3,3.2,4.7,4.4c2,1.4,4,2.3,6.2,2.8c-1.1,1.8-1.9,3.7-2.3,5.9C47.1,84.9,47.1,87.2,47.3,89.6z
	 M47.6,54.9c0.4,2.2,1.2,4.1,2.3,5.9c-2.2,0.5-4.2,1.4-6.2,2.8c-1.7,1.2-3.3,2.7-4.7,4.4c-3-3.9-5.2-9-6.8-14.5
	c5-2.8,10.2-4.8,15.1-5.5C47.1,50.4,47.1,52.7,47.6,54.9z M62.6,62.3c-4.2-1.8-8.2-2.3-11.9-1.7c-1.1-1.8-1.9-3.7-2.4-5.9
	c-0.4-2.2-0.5-4.5-0.2-6.8c2.4-0.3,4.7-0.2,6.8,0.2c2.2,0.4,4.1,1.2,5.9,2.4C60.3,54.2,60.9,58.1,62.6,62.3z M77.2,50.5
	c1.8-1.1,3.7-1.9,5.9-2.4c2.2-0.4,4.5-0.5,6.8-0.2c0.3,2.4,0.2,4.7-0.2,6.8c-0.4,2.2-1.2,4.1-2.4,5.9c-3.7-0.7-7.6-0.1-11.9,1.7
	C77.3,58.1,77.9,54.2,77.2,50.5z M90.9,48c4.9,0.7,10.1,2.7,15.1,5.5c-1.6,5.6-3.8,10.6-6.8,14.5c-1.4-1.7-3-3.2-4.7-4.4
	c-2-1.4-4-2.3-6.2-2.8c1.1-1.8,1.9-3.7,2.3-5.9C91,52.7,91.1,50.4,90.9,48z M90.6,82.7c-0.4-2.2-1.2-4.1-2.3-5.9
	c2.2-0.5,4.2-1.4,6.2-2.8c1.7-1.2,3.3-2.7,4.7-4.4c3,3.9,5.2,9,6.8,14.5c-5,2.8-10.2,4.8-15.1,5.5C91.1,87.2,91,84.9,90.6,82.7z
	 M75.5,75.2c4.2,1.8,8.2,2.3,11.9,1.7c1.1,1.8,1.9,3.7,2.4,5.9c0.4,2.2,0.5,4.5,0.2,6.8c-2.4,0.3-4.7,0.2-6.8-0.2
	C81,89,79,88.2,77.2,87.1C77.9,83.4,77.3,79.5,75.5,75.2z M78.2,68.8c4.2-1.7,7.4-4.1,9.6-7.2c2.2,0.5,4.3,1.4,6.2,2.8
	c1.7,1.2,3.2,2.7,4.6,4.4c-1.4,1.7-2.9,3.2-4.6,4.4c-2,1.4-4,2.3-6.2,2.8C85.7,72.9,82.5,70.5,78.2,68.8z M74.4,62.8
	c0,0,0,0.1-0.1,0.1l-0.4,1l1-0.4c0,0,0.1,0,0.1-0.1c4.2-1.9,8.2-2.6,11.8-2.1c-2.2,3-5.5,5.3-9.8,6.9c-0.1,0-0.1,0-0.2,0.1l-0.9,0.4
	l0.9,0.4c0.1,0,0.1,0,0.2,0.1c4.3,1.6,7.6,3.9,9.8,6.9c-3.7,0.6-7.6-0.1-11.8-2.1c0,0-0.1,0-0.1-0.1l-1-0.4l0.4,1c0,0,0,0.1,0.1,0.1
	c1.9,4.2,2.6,8.2,2.1,11.8c-3-2.2-5.3-5.5-6.9-9.8c0-0.1,0-0.1-0.1-0.2l-0.4-0.9l-0.4,0.9c0,0.1,0,0.1-0.1,0.2
	c-1.6,4.3-3.9,7.6-6.9,9.8c-0.6-3.7,0.1-7.6,2.1-11.8c0,0,0-0.1,0.1-0.1l0.4-1l-1,0.4c0,0-0.1,0-0.1,0.1c-4.2,1.9-8.2,2.6-11.8,2.1
	c2.2-3,5.5-5.3,9.8-6.9c0.1,0,0.1,0,0.2-0.1l0.9-0.4l-0.9-0.4c-0.1,0-0.1,0-0.2-0.1c-4.3-1.6-7.6-3.9-9.8-6.9
	c3.7-0.6,7.6,0.1,11.8,2.1c0,0,0.1,0,0.1,0.1l1,0.4l-0.4-1c0,0,0-0.1-0.1-0.1c-1.9-4.2-2.6-8.2-2.1-11.8c3,2.2,5.3,5.5,6.9,9.8
	c0,0.1,0,0.1,0.1,0.2l0.4,0.9l0.4-0.9c0-0.1,0-0.1,0.1-0.2c1.6-4.3,3.9-7.6,6.9-9.8C77,54.7,76.3,58.6,74.4,62.8z M50.4,76
	c-2.2-0.5-4.3-1.4-6.2-2.8c-1.7-1.2-3.2-2.7-4.6-4.4c1.4-1.7,2.9-3.2,4.6-4.4c2-1.4,4-2.3,6.2-2.8c2.1,3.1,5.3,5.5,9.6,7.2
	C55.7,70.5,52.5,72.9,50.4,76z M48.4,82.8c0.4-2.2,1.2-4.1,2.4-5.9c3.7,0.7,7.6,0.1,11.9-1.7c-1.8,4.2-2.3,8.2-1.7,11.9
	c-1.8,1.1-3.7,1.9-5.9,2.4c-2.2,0.4-4.5,0.5-6.8,0.2C47.9,87.3,48,85,48.4,82.8z M55.2,90.3c2.2-0.4,4.1-1.2,5.9-2.3
	c0.5,2.2,1.4,4.2,2.8,6.2c1.2,1.7,2.7,3.3,4.4,4.7c-3.9,3-9,5.2-14.5,6.8c-2.8-5-4.8-10.2-5.5-15.1C50.7,90.8,53,90.7,55.2,90.3z
	 M64.7,93.7c-1.4-2-2.3-4-2.8-6.2c3.1-2.1,5.5-5.3,7.2-9.6c1.7,4.2,4.1,7.4,7.2,9.6c-0.5,2.2-1.4,4.3-2.8,6.2
	c-1.2,1.7-2.7,3.2-4.4,4.6C67.4,97,65.9,95.4,64.7,93.7z M74.2,94.2c1.4-2,2.3-4,2.8-6.2c1.8,1.1,3.7,1.9,5.9,2.3
	c2.2,0.4,4.5,0.5,6.9,0.2c-0.7,4.9-2.7,10.1-5.5,15.1c-5.6-1.6-10.6-3.8-14.5-6.8C71.5,97.5,73,95.9,74.2,94.2z M99.7,68.8
	c3.1-4,5.4-9.2,7-14.8c6.8,4,13.3,9.3,18.3,14.8c-5,5.5-11.5,10.9-18.3,14.8C105.1,77.9,102.8,72.8,99.7,68.8z M89.9,47
	c-2.4-0.2-4.7-0.2-6.9,0.2c-2.2,0.4-4.1,1.2-5.9,2.3c-0.5-2.2-1.4-4.2-2.8-6.2c-1.2-1.7-2.7-3.3-4.4-4.7c3.9-3,9-5.2,14.5-6.8
	C87.2,36.9,89.2,42.1,89.9,47z M73.5,43.9c1.4,2,2.3,4,2.8,6.2c-3.1,2.1-5.5,5.3-7.2,9.6c-1.7-4.2-4.1-7.4-7.2-9.6
	c0.5-2.2,1.4-4.3,2.8-6.2c1.2-1.7,2.7-3.2,4.4-4.6C70.8,40.6,72.3,42.2,73.5,43.9z M64,43.4c-1.4,2-2.3,4-2.8,6.2
	c-1.8-1.1-3.7-1.9-5.9-2.3c-2.2-0.4-4.5-0.5-6.9-0.2c0.7-4.9,2.7-10.1,5.5-15.1c5.6,1.6,10.6,3.8,14.5,6.8
	C66.7,40.1,65.2,41.7,64,43.4z M38.5,68.8c-3.1,4-5.4,9.2-7,14.8c-6.8-4-13.3-9.3-18.3-14.8c5-5.5,11.5-10.9,18.3-14.8
	C33.1,59.6,35.4,64.8,38.5,68.8z M32,84.9c5.1,2.9,10.4,4.9,15.5,5.6c0.7,5,2.7,10.3,5.6,15.5c-4.1,1.1-8.4,1.8-12.7,2.2
	c0.3-3.3,0.3-6.6,0.2-9.8c0-0.3,0-0.6,0-0.9c-0.3,0-0.6,0-0.9,0c-3.2-0.1-6.5-0.1-9.8,0.2C30.2,93.3,30.9,89,32,84.9z M39.6,98.3
	c0.1,3.2,0.1,6.6-0.2,9.9c-3.3,0.3-6.7,0.3-9.9,0.2c-0.1-3.2-0.1-6.6,0.2-9.9C33,98.2,36.4,98.2,39.6,98.3z M62.5,131.3l-5.9,5.9
	c-5.1-5.6-11.7-11-18.7-15c1.1-4.2,1.9-8.7,2.3-13.2c4.5-0.4,9-1.2,13.2-2.3c4,7,9.5,13.6,15,18.7L62.5,131.3z M54.3,106.4
	c5.7-1.6,10.8-3.9,14.8-7c4,3.1,9.2,5.4,14.8,7c-4,6.8-9.3,13.3-14.8,18.3C63.6,119.7,58.2,113.3,54.3,106.4z M81.6,137.3l-5.9-5.9
	l-5.9-5.9c5.6-5.1,11-11.7,15-18.7c4.2,1.1,8.7,1.9,13.2,2.3c0.4,4.5,1.2,9,2.3,13.2C93.3,126.2,86.7,131.7,81.6,137.3z M98.9,109.1
	c3.3,0.3,6.6,0.3,9.8,0.2c0.3,0,0.6,0,0.9,0c0-0.3,0-0.6,0-0.9c0.1-3.2,0.1-6.5-0.2-9.8c4.3,0.4,8.7,1.1,12.7,2.2
	c-2.8,5.1-4.9,10.4-5.6,15.5c-5,0.7-10.3,2.7-15.5,5.6C100,117.7,99.2,113.4,98.9,109.1z M112.8,132.8c-1.7,1.2-3.3,2.7-4.7,4.4
	c-3-3.9-5.2-9-6.8-14.5c5-2.8,10.2-4.8,15.1-5.5c-0.2,2.4-0.2,4.7,0.2,6.9c0.4,2.2,1.2,4.1,2.3,5.9
	C116.8,130.4,114.7,131.4,112.8,132.8z M131.7,131.4c-4.2-1.8-8.2-2.3-11.9-1.7c-1.1-1.8-1.9-3.7-2.4-5.9c-0.4-2.2-0.5-4.5-0.2-6.8
	c2.4-0.3,4.7-0.2,6.8,0.2c2.2,0.4,4.1,1.2,5.9,2.4C129.4,123.3,130,127.2,131.7,131.4z M137.5,107.8c-1.7,1.4-3.2,3-4.4,4.7
	c-1.4,2-2.3,4-2.8,6.2c-1.8-1.1-3.7-1.9-5.9-2.3c-2.2-0.4-4.5-0.5-6.9-0.2c0.7-4.9,2.7-10.1,5.5-15.1
	C128.5,102.6,133.6,104.8,137.5,107.8z M131.6,75.4l5.9,5.9c-5.6,5.1-11,11.7-15,18.7c-4.2-1.1-8.7-1.9-13.2-2.3
	c-0.4-4.5-1.2-9-2.3-13.2c7-4,13.6-9.5,18.7-15L131.6,75.4z M137.6,56.3l-5.9,5.9l-5.9,5.9c-5.1-5.6-11.7-11-18.7-15
	c1.1-4.2,1.9-8.7,2.3-13.2c4.5-0.4,9-1.2,13.2-2.3C126.5,44.6,132,51.2,137.6,56.3z M133.1,25.1c1.2,1.7,2.7,3.3,4.4,4.7
	c-3.9,3-9,5.2-14.5,6.8c-2.8-5-4.8-10.2-5.5-15.1c2.4,0.2,4.7,0.2,6.9-0.2c2.2-0.4,4.1-1.2,5.9-2.3
	C130.7,21.1,131.7,23.2,133.1,25.1z M119.9,7.8c3.7,0.7,7.6,0.1,11.9-1.7c-1.8,4.2-2.3,8.2-1.7,11.9c-1.8,1.1-3.7,1.9-5.9,2.4
	c-2.2,0.4-4.5,0.5-6.8,0.2c-0.3-2.4-0.2-4.7,0.2-6.8C117.9,11.6,118.7,9.6,119.9,7.8z M108.1,0.4c1.4,1.7,3,3.2,4.7,4.4
	c2,1.4,4,2.3,6.2,2.8c-1.1,1.8-1.9,3.7-2.3,5.9c-0.4,2.2-0.5,4.5-0.2,6.9c-4.9-0.7-10.1-2.7-15.1-5.5C102.9,9.4,105.1,4.3,108.1,0.4
	z M101.1,15.8c5.1,2.8,10.4,4.9,15.5,5.6c0.7,5,2.7,10.3,5.6,15.5c-4.1,1.1-8.4,1.8-12.7,2.2c0.3-3.3,0.3-6.6,0.2-9.8
	c0-0.3,0-0.6,0-0.9c-0.3,0-0.6,0-0.9,0c-3.2-0.1-6.5-0.1-9.8,0.2C99.2,24.2,100,19.9,101.1,15.8z M75.7,6.3l5.9-5.9
	c5.1,5.6,11.7,11,18.7,15c-1.1,4.2-1.9,8.7-2.3,13.2c-4.5,0.4-9,1.2-13.2,2.3c-4-7-9.5-13.6-15-18.7L75.7,6.3z M83.9,31.1
	c-5.7,1.6-10.8,3.9-14.8,7c-4-3.1-9.2-5.4-14.8-7c4-6.8,9.3-13.3,14.8-18.3C74.6,17.8,80,24.3,83.9,31.1z M56.6,0.3l5.9,5.9l5.9,5.9
	c-5.6,5.1-11,11.7-15,18.7c-4.2-1.1-8.7-1.9-13.2-2.3c-0.4-4.5-1.2-9-2.3-13.2C44.9,11.4,51.5,5.9,56.6,0.3z M39.3,28.5
	c-3.3-0.3-6.6-0.3-9.8-0.2c-0.3,0-0.6,0-0.9,0c0,0.3,0,0.6,0,0.9c-0.1,3.2-0.1,6.5,0.2,9.8c-4.3-0.4-8.7-1.1-12.7-2.2
	c2.9-5.1,4.9-10.4,5.6-15.5c5-0.7,10.3-2.7,15.5-5.6C38.2,19.9,38.9,24.2,39.3,28.5z M25.4,4.8c1.7-1.2,3.3-2.7,4.7-4.4
	c3,3.9,5.2,9,6.8,14.5c-5,2.8-10.2,4.8-15.1,5.5c0.2-2.4,0.2-4.7-0.2-6.9c-0.4-2.2-1.2-4.1-2.3-5.9C21.4,7.1,23.5,6.2,25.4,4.8z
	 M6.5,6.1c4.2,1.8,8.2,2.3,11.9,1.7c1.1,1.8,1.9,3.7,2.4,5.9c0.4,2.2,0.5,4.5,0.2,6.8c-2.4,0.3-4.7,0.2-6.8-0.2
	c-2.2-0.4-4.1-1.2-5.9-2.4C8.8,14.3,8.2,10.4,6.5,6.1z M0.7,29.8c1.7-1.4,3.2-3,4.4-4.7c1.4-2,2.3-4,2.8-6.2
	c1.8,1.1,3.7,1.9,5.9,2.3c2.2,0.4,4.5,0.5,6.9,0.2c-0.7,4.9-2.7,10.1-5.5,15.1C9.7,35,4.6,32.8,0.7,29.8z M6.6,62.2l-5.9-5.9
	c5.6-5.1,11-11.7,15-18.7c4.2,1.1,8.7,1.9,13.2,2.3c0.4,4.5,1.2,9,2.3,13.2c-7,4-13.6,9.5-18.7,15L6.6,62.2z M0.6,81.3l5.9-5.9
	l5.9-5.9c5.1,5.6,11.7,11,18.7,15c-1.1,4.2-1.9,8.7-2.3,13.2c-4.5,0.4-9,1.2-13.2,2.3C11.7,93,6.2,86.4,0.6,81.3z M15.2,101
	c2.8,5,4.8,10.2,5.5,15.1c-2.4-0.2-4.7-0.2-6.9,0.2c-2.2,0.4-4.1,1.2-5.9,2.3c-0.5-2.2-1.4-4.2-2.8-6.2c-1.2-1.7-2.7-3.3-4.4-4.7
	C4.6,104.8,9.7,102.6,15.2,101z"/>
</svg>
